<mxfile host="app.diagrams.net" modified="2024-07-02T04:00:14.404Z" agent="Mozilla/5.0 (Macintosh; Intel Mac OS X 10_15_7) AppleWebKit/537.36 (KHTML, like Gecko) Chrome/125.0.0.0 Safari/537.36" etag="EIXCggoHDbS4ydI3ZPmp" version="24.6.3" type="device">
  <diagram name="Page-1" id="YBPNLHymaKYXu_r0LT9t">
    <mxGraphModel dx="2559" dy="2223" grid="1" gridSize="10" guides="1" tooltips="1" connect="1" arrows="1" fold="1" page="1" pageScale="1" pageWidth="827" pageHeight="1169" math="0" shadow="0">
      <root>
        <mxCell id="0" />
        <mxCell id="1" parent="0" />
        <mxCell id="R5Q36gklIRTZVljyS70G-1" value="" style="image;aspect=fixed;html=1;points=[];align=center;fontSize=12;image=img/lib/azure2/general/Browser.svg;" vertex="1" parent="1">
          <mxGeometry x="220" y="120" width="137.5" height="110" as="geometry" />
        </mxCell>
        <mxCell id="R5Q36gklIRTZVljyS70G-2" value="" style="html=1;verticalLabelPosition=bottom;align=center;labelBackgroundColor=#ffffff;verticalAlign=top;strokeWidth=2;strokeColor=#0080F0;shadow=0;dashed=0;shape=mxgraph.ios7.icons.smartphone;" vertex="1" parent="1">
          <mxGeometry x="410" y="90" width="70" height="150" as="geometry" />
        </mxCell>
        <mxCell id="R5Q36gklIRTZVljyS70G-3" value="" style="rounded=0;whiteSpace=wrap;html=1;imageAspect=1;fillOpacity=0;fillColor=#fff2cc;strokeColor=#d6b656;" vertex="1" parent="1">
          <mxGeometry x="130" y="50" width="420" height="230" as="geometry" />
        </mxCell>
        <mxCell id="R5Q36gklIRTZVljyS70G-4" value="Browser" style="text;html=1;align=center;verticalAlign=middle;whiteSpace=wrap;rounded=0;" vertex="1" parent="1">
          <mxGeometry x="258.75" y="165" width="60" height="30" as="geometry" />
        </mxCell>
        <mxCell id="R5Q36gklIRTZVljyS70G-5" value="Mobile Device" style="text;html=1;align=center;verticalAlign=middle;whiteSpace=wrap;rounded=0;" vertex="1" parent="1">
          <mxGeometry x="384" y="150" width="126" height="30" as="geometry" />
        </mxCell>
        <mxCell id="R5Q36gklIRTZVljyS70G-7" value="User - Client Side" style="text;html=1;align=center;verticalAlign=middle;whiteSpace=wrap;rounded=0;fillColor=#d5e8d4;strokeColor=#82b366;" vertex="1" parent="1">
          <mxGeometry x="140" y="60" width="110" height="30" as="geometry" />
        </mxCell>
        <mxCell id="R5Q36gklIRTZVljyS70G-11" value="" style="image;aspect=fixed;perimeter=ellipsePerimeter;html=1;align=center;shadow=0;dashed=0;spacingTop=3;image=img/lib/active_directory/generic_server.svg;" vertex="1" parent="1">
          <mxGeometry x="284.7" y="410" width="72.8" height="130" as="geometry" />
        </mxCell>
        <mxCell id="R5Q36gklIRTZVljyS70G-12" value="" style="rounded=0;whiteSpace=wrap;html=1;fillOpacity=0;dashed=1;" vertex="1" parent="1">
          <mxGeometry x="130" y="400" width="430" height="150" as="geometry" />
        </mxCell>
        <mxCell id="R5Q36gklIRTZVljyS70G-14" value="Web Server - Server Side" style="text;html=1;align=center;verticalAlign=middle;whiteSpace=wrap;rounded=0;fillColor=#d5e8d4;strokeColor=#82b366;" vertex="1" parent="1">
          <mxGeometry x="216.6" y="560" width="211" height="30" as="geometry" />
        </mxCell>
        <mxCell id="R5Q36gklIRTZVljyS70G-15" value="" style="image;sketch=0;aspect=fixed;html=1;points=[];align=center;fontSize=12;image=img/lib/mscae/DNS.svg;" vertex="1" parent="1">
          <mxGeometry x="700" y="95" width="100" height="100" as="geometry" />
        </mxCell>
        <mxCell id="R5Q36gklIRTZVljyS70G-16" value="" style="endArrow=classic;html=1;rounded=0;exitX=1;exitY=0.296;exitDx=0;exitDy=0;exitPerimeter=0;entryX=0;entryY=0.231;entryDx=0;entryDy=0;entryPerimeter=0;" edge="1" parent="1" source="R5Q36gklIRTZVljyS70G-3" target="R5Q36gklIRTZVljyS70G-15">
          <mxGeometry width="50" height="50" relative="1" as="geometry">
            <mxPoint x="560" y="290" as="sourcePoint" />
            <mxPoint x="690" y="120" as="targetPoint" />
          </mxGeometry>
        </mxCell>
        <mxCell id="R5Q36gklIRTZVljyS70G-17" value="" style="endArrow=classic;html=1;rounded=0;entryX=1.004;entryY=0.48;entryDx=0;entryDy=0;entryPerimeter=0;exitX=-0.015;exitY=0.641;exitDx=0;exitDy=0;exitPerimeter=0;" edge="1" parent="1" source="R5Q36gklIRTZVljyS70G-15" target="R5Q36gklIRTZVljyS70G-3">
          <mxGeometry width="50" height="50" relative="1" as="geometry">
            <mxPoint x="687" y="160" as="sourcePoint" />
            <mxPoint x="550" y="163.02999999999994" as="targetPoint" />
          </mxGeometry>
        </mxCell>
        <mxCell id="R5Q36gklIRTZVljyS70G-18" value="" style="endArrow=classic;html=1;rounded=0;exitX=0.233;exitY=1.01;exitDx=0;exitDy=0;exitPerimeter=0;entryX=0.23;entryY=-0.007;entryDx=0;entryDy=0;entryPerimeter=0;" edge="1" parent="1" source="R5Q36gklIRTZVljyS70G-3" target="R5Q36gklIRTZVljyS70G-12">
          <mxGeometry width="50" height="50" relative="1" as="geometry">
            <mxPoint x="310" y="330" as="sourcePoint" />
            <mxPoint x="460" y="330" as="targetPoint" />
          </mxGeometry>
        </mxCell>
        <mxCell id="R5Q36gklIRTZVljyS70G-19" value="" style="endArrow=classic;html=1;rounded=0;exitX=0.233;exitY=1.01;exitDx=0;exitDy=0;exitPerimeter=0;" edge="1" parent="1">
          <mxGeometry width="50" height="50" relative="1" as="geometry">
            <mxPoint x="300" y="281" as="sourcePoint" />
            <mxPoint x="300" y="400" as="targetPoint" />
          </mxGeometry>
        </mxCell>
        <mxCell id="R5Q36gklIRTZVljyS70G-20" value="api.yoursite.com" style="text;html=1;align=center;verticalAlign=middle;whiteSpace=wrap;rounded=0;" vertex="1" parent="1">
          <mxGeometry x="580" y="90" width="100" height="30" as="geometry" />
        </mxCell>
        <mxCell id="R5Q36gklIRTZVljyS70G-21" value="IP Address&lt;div&gt;Returned&lt;/div&gt;&lt;div&gt;10.123.23.214&lt;/div&gt;" style="text;html=1;align=center;verticalAlign=middle;whiteSpace=wrap;rounded=0;" vertex="1" parent="1">
          <mxGeometry x="570" y="200" width="190" height="40" as="geometry" />
        </mxCell>
        <mxCell id="R5Q36gklIRTZVljyS70G-22" value="api.yoursite.com" style="text;html=1;align=center;verticalAlign=middle;whiteSpace=wrap;rounded=0;" vertex="1" parent="1">
          <mxGeometry x="300" y="330" width="100" height="30" as="geometry" />
        </mxCell>
        <mxCell id="R5Q36gklIRTZVljyS70G-23" value="www.yoursite.com&lt;div&gt;&lt;br&gt;&lt;/div&gt;&lt;div&gt;10.123.23.214&lt;br&gt;&lt;/div&gt;" style="text;html=1;align=center;verticalAlign=middle;whiteSpace=wrap;rounded=0;" vertex="1" parent="1">
          <mxGeometry x="120" y="310" width="100" height="50" as="geometry" />
        </mxCell>
        <mxCell id="R5Q36gklIRTZVljyS70G-24" value="1" style="rounded=1;fillColor=#0065FF;strokeColor=none;html=1;fontColor=#ffffff;align=center;verticalAlign=middle;whiteSpace=wrap;fontSize=18;fontStyle=1;arcSize=50;sketch=0;" vertex="1" parent="1">
          <mxGeometry x="560" y="70" width="40" height="20" as="geometry" />
        </mxCell>
        <mxCell id="R5Q36gklIRTZVljyS70G-25" value="2" style="rounded=1;fillColor=#0065FF;strokeColor=none;html=1;fontColor=#ffffff;align=center;verticalAlign=middle;whiteSpace=wrap;fontSize=18;fontStyle=1;arcSize=50;sketch=0;" vertex="1" parent="1">
          <mxGeometry x="570" y="175" width="40" height="20" as="geometry" />
        </mxCell>
        <mxCell id="R5Q36gklIRTZVljyS70G-26" value="3" style="rounded=1;fillColor=#0065FF;strokeColor=none;html=1;fontColor=#ffffff;align=center;verticalAlign=middle;whiteSpace=wrap;fontSize=18;fontStyle=1;arcSize=50;sketch=0;" vertex="1" parent="1">
          <mxGeometry x="170" y="290" width="40" height="20" as="geometry" />
        </mxCell>
        <mxCell id="R5Q36gklIRTZVljyS70G-27" value="4" style="rounded=1;fillColor=#0065FF;strokeColor=none;html=1;fontColor=#ffffff;align=center;verticalAlign=middle;whiteSpace=wrap;fontSize=18;fontStyle=1;arcSize=50;sketch=0;" vertex="1" parent="1">
          <mxGeometry x="440" y="310" width="40" height="20" as="geometry" />
        </mxCell>
        <mxCell id="R5Q36gklIRTZVljyS70G-28" value="" style="endArrow=classic;html=1;rounded=0;exitX=0.813;exitY=0;exitDx=0;exitDy=0;exitPerimeter=0;entryX=0.831;entryY=1;entryDx=0;entryDy=0;entryPerimeter=0;" edge="1" parent="1" source="R5Q36gklIRTZVljyS70G-12" target="R5Q36gklIRTZVljyS70G-3">
          <mxGeometry width="50" height="50" relative="1" as="geometry">
            <mxPoint x="310" y="291" as="sourcePoint" />
            <mxPoint x="310" y="410" as="targetPoint" />
          </mxGeometry>
        </mxCell>
        <mxCell id="R5Q36gklIRTZVljyS70G-29" value="HTML / CSS / Javascript&lt;div&gt;Sent back to client&lt;/div&gt;" style="text;html=1;align=center;verticalAlign=middle;whiteSpace=wrap;rounded=0;" vertex="1" parent="1">
          <mxGeometry x="426.6" y="330" width="260" height="30" as="geometry" />
        </mxCell>
        <mxCell id="R5Q36gklIRTZVljyS70G-30" value="" style="image;aspect=fixed;perimeter=ellipsePerimeter;html=1;align=center;shadow=0;dashed=0;spacingTop=3;image=img/lib/active_directory/database.svg;" vertex="1" parent="1">
          <mxGeometry x="740" y="400" width="202.7" height="150" as="geometry" />
        </mxCell>
        <mxCell id="R5Q36gklIRTZVljyS70G-31" value="" style="rounded=0;whiteSpace=wrap;html=1;fillOpacity=0;" vertex="1" parent="1">
          <mxGeometry x="-30" y="-90" width="1040" height="790" as="geometry" />
        </mxCell>
        <mxCell id="R5Q36gklIRTZVljyS70G-33" value="" style="endArrow=classic;html=1;rounded=0;exitX=1;exitY=0.25;exitDx=0;exitDy=0;" edge="1" parent="1" source="R5Q36gklIRTZVljyS70G-12">
          <mxGeometry width="50" height="50" relative="1" as="geometry">
            <mxPoint x="530" y="360" as="sourcePoint" />
            <mxPoint x="730" y="440" as="targetPoint" />
          </mxGeometry>
        </mxCell>
        <mxCell id="R5Q36gklIRTZVljyS70G-34" value="" style="endArrow=classic;html=1;rounded=0;exitX=0.005;exitY=0.404;exitDx=0;exitDy=0;exitPerimeter=0;entryX=1.005;entryY=0.404;entryDx=0;entryDy=0;entryPerimeter=0;" edge="1" parent="1">
          <mxGeometry width="50" height="50" relative="1" as="geometry">
            <mxPoint x="740" y="510" as="sourcePoint" />
            <mxPoint x="561" y="510" as="targetPoint" />
          </mxGeometry>
        </mxCell>
        <mxCell id="R5Q36gklIRTZVljyS70G-35" value="Read Operation&lt;br&gt;Write Operation&lt;div&gt;Update Operation&lt;/div&gt;" style="text;html=1;align=center;verticalAlign=middle;whiteSpace=wrap;rounded=0;" vertex="1" parent="1">
          <mxGeometry x="535" y="400" width="260" height="30" as="geometry" />
        </mxCell>
        <mxCell id="R5Q36gklIRTZVljyS70G-36" value="api.yoursite.com" style="text;html=1;align=center;verticalAlign=middle;whiteSpace=wrap;rounded=0;" vertex="1" parent="1">
          <mxGeometry x="310" y="340" width="100" height="30" as="geometry" />
        </mxCell>
        <mxCell id="R5Q36gklIRTZVljyS70G-37" value="Response from Database" style="text;html=1;align=center;verticalAlign=middle;whiteSpace=wrap;rounded=0;" vertex="1" parent="1">
          <mxGeometry x="600" y="480" width="100" height="30" as="geometry" />
        </mxCell>
        <mxCell id="R5Q36gklIRTZVljyS70G-38" value="Database&amp;nbsp;&lt;div&gt;SQL/No-SQL&lt;/div&gt;" style="text;html=1;align=center;verticalAlign=middle;whiteSpace=wrap;rounded=0;" vertex="1" parent="1">
          <mxGeometry x="820" y="580" width="100" height="30" as="geometry" />
        </mxCell>
      </root>
    </mxGraphModel>
  </diagram>
</mxfile>
